<svg width="166" height="108" viewBox="0 0 166 108" fill="none" xmlns="http://www.w3.org/2000/svg">
<path d="M77.7971 0C86.0303 0 92.3902 1.71374 96.8768 5.14122C101.363 8.5687 103.607 13.5593 103.607 20.1129C103.607 26.6666 101.363 31.6571 96.8768 35.0846C92.3902 38.5121 86.0303 40.2258 77.7971 40.2258C69.564 40.2258 63.2041 38.5309 58.7174 35.1411C54.2771 31.7136 52.0569 26.7042 52.0569 20.1129C52.0569 13.5216 54.2771 8.53104 58.7174 5.14122C63.2041 1.71374 69.564 0 77.7971 0ZM77.7971 9.32199C74.5131 9.32199 72.0154 10.1318 70.304 11.7514C68.5926 13.3709 67.7369 15.5555 67.7369 18.305V21.9208C67.7369 24.6703 68.5926 26.8549 70.304 28.4745C72.0154 30.094 74.5131 30.9038 77.7971 30.9038C81.0812 30.9038 83.5789 30.094 85.2903 28.4745C87.0479 26.8549 87.9267 24.6703 87.9267 21.9208V18.305C87.9267 15.5555 87.0479 13.3709 85.2903 11.7514C83.5789 10.1318 81.0812 9.32199 77.7971 9.32199Z" fill="#CF662F"/>
<path d="M0 0H50.8738V12.263H21.6367V16.5464H50.8738V28.4001H21.6367V40.2258H0V0Z" fill="#CF662F"/>
<path d="M153.983 12.3367C153.983 14.7923 153.126 17.0141 151.413 19.002C149.699 20.9899 147.205 22.4516 143.929 23.3871L155.495 40.2258H136.748L127.525 25.5504H119.748V40.2258H104.621V0H136.445C140.175 0 143.349 0.565188 145.97 1.69556C148.641 2.78696 150.632 4.28763 151.942 6.19758C153.302 8.06855 153.983 10.1149 153.983 12.3367ZM136.974 12.8629C136.974 11.8105 136.521 10.9335 135.614 10.2319C134.707 9.53024 133.598 9.17944 132.288 9.17944H119.748V16.6048H132.288C133.598 16.6048 134.707 16.254 135.614 15.5524C136.521 14.8118 136.974 13.9153 136.974 12.8629Z" fill="#CF662F"/>
<path d="M58.0036 108V85.6512C58.0036 82.8876 58.0995 80.064 58.2913 77.1802C58.5469 74.2364 58.8026 71.7733 59.0583 69.7907C59.3139 67.8081 59.4737 66.5465 59.5376 66.0058H59.1541L46.9782 108H30.392L18.1201 66.0959H17.7366C17.8006 66.6366 17.9604 67.8983 18.216 69.8808C18.5356 71.8033 18.8232 74.2364 19.0789 77.1802C19.3345 80.064 19.4624 82.8876 19.4624 85.6512V108H0V46H29.9126L39.8835 81.7762H40.267L50.142 46H79V108H58.0036Z" fill="#CF662F"/>
<path d="M140.719 108L137.586 98.9767H111.549L108.416 108H84L111.117 44H138.883L166 108H140.719ZM116.519 84.6512H132.617L124.838 61.8605H124.406L116.519 84.6512Z" fill="#CF662F"/>
</svg>
