<svg width="300" height="105" viewBox="0 0 300 105" fill="none" xmlns="http://www.w3.org/2000/svg">
<mask id="path-1-outside-1_29_193" maskUnits="userSpaceOnUse" x="0" y="0" width="300" height="105" fill="black">
<rect fill="white" width="300" height="105"/>
<path d="M2.45 20.76C2.45 15.772 4.213 11.515 7.739 7.98899C11.265 4.46299 15.522 2.69999 20.51 2.69999H80.753C81.613 2.69999 82.301 3.001 82.817 3.603C83.419 4.119 83.72 4.80699 83.72 5.66699V17.793C83.72 18.653 83.419 19.384 82.817 19.986C82.301 20.502 81.613 20.76 80.753 20.76H23.477C22.617 20.76 21.886 21.061 21.284 21.663C20.768 22.179 20.51 22.867 20.51 23.727V35.853C20.51 36.713 20.768 37.444 21.284 38.046C21.886 38.562 22.617 38.82 23.477 38.82H71.723C72.583 38.82 73.271 39.121 73.787 39.723C74.389 40.239 74.69 40.927 74.69 41.787V53.913C74.69 54.773 74.389 55.504 73.787 56.106C73.271 56.622 72.583 56.88 71.723 56.88H23.477C22.617 56.88 21.886 57.181 21.284 57.783C20.768 58.299 20.51 58.987 20.51 59.847V90.033C20.51 90.893 20.209 91.624 19.607 92.226C19.091 92.742 18.403 93 17.543 93H5.417C4.557 93 3.826 92.742 3.224 92.226C2.708 91.624 2.45 90.893 2.45 90.033V20.76ZM164.694 20.76H116.448C115.588 20.76 114.857 21.061 114.255 21.663C113.739 22.179 113.481 22.867 113.481 23.727V53.913C113.481 54.773 113.739 55.504 114.255 56.106C114.857 56.622 115.588 56.88 116.448 56.88H164.694C165.554 56.88 166.242 56.622 166.758 56.106C167.36 55.504 167.661 54.773 167.661 53.913V23.727C167.661 22.867 167.36 22.179 166.758 21.663C166.242 21.061 165.554 20.76 164.694 20.76ZM95.4207 90.033V20.76C95.4207 15.772 97.1837 11.515 100.71 7.98899C104.236 4.46299 108.493 2.69999 113.481 2.69999H167.661C172.649 2.69999 176.906 4.46299 180.432 7.98899C183.958 11.515 185.721 15.772 185.721 20.76V90.033C185.721 90.893 185.42 91.624 184.818 92.226C184.302 92.742 183.614 93 182.754 93H170.628C169.768 93 169.037 92.742 168.435 92.226C167.919 91.624 167.661 90.893 167.661 90.033V77.907C167.661 77.047 167.36 76.359 166.758 75.843C166.242 75.241 165.554 74.94 164.694 74.94H116.448C115.588 74.94 114.857 75.241 114.255 75.843C113.739 76.359 113.481 77.047 113.481 77.907V90.033C113.481 90.893 113.18 91.624 112.578 92.226C112.062 92.742 111.374 93 110.514 93H98.3877C97.5277 93 96.7967 92.742 96.1947 92.226C95.6787 91.624 95.4207 90.893 95.4207 90.033ZM267.74 20.76H219.623C218.849 20.76 218.161 21.061 217.559 21.663C216.957 22.265 216.656 22.953 216.656 23.727V71.973C216.656 72.833 216.957 73.564 217.559 74.166C218.161 74.682 218.849 74.94 219.623 74.94H267.74C268.6 74.94 269.331 74.682 269.933 74.166C270.535 73.564 270.836 72.833 270.836 71.973V23.727C270.836 22.953 270.535 22.265 269.933 21.663C269.331 21.061 268.6 20.76 267.74 20.76ZM198.596 74.94V20.76C198.596 15.772 200.359 11.515 203.885 7.98899C207.411 4.46299 211.668 2.69999 216.656 2.69999H270.836C275.824 2.69999 280.038 4.46299 283.478 7.98899C287.004 11.515 288.767 15.772 288.767 20.76V81.003C288.767 81.777 289.068 82.465 289.67 83.067C290.272 83.669 291.003 83.97 291.863 83.97H294.83C295.69 83.97 296.421 84.271 297.023 84.873C297.625 85.389 297.926 86.077 297.926 86.937V99.063C297.926 99.923 297.625 100.611 297.023 101.127C296.421 101.729 295.69 102.03 294.83 102.03H282.833C281.973 102.03 281.242 101.729 280.64 101.127C280.124 100.611 279.866 99.923 279.866 99.063V96.096C279.866 95.236 279.565 94.505 278.963 93.903C278.361 93.301 277.673 93 276.899 93H216.656C211.668 93 207.411 91.237 203.885 87.711C200.359 84.185 198.596 79.928 198.596 74.94Z"/>
</mask>
<path d="M2.45 20.76C2.45 15.772 4.213 11.515 7.739 7.98899C11.265 4.46299 15.522 2.69999 20.51 2.69999H80.753C81.613 2.69999 82.301 3.001 82.817 3.603C83.419 4.119 83.72 4.80699 83.72 5.66699V17.793C83.72 18.653 83.419 19.384 82.817 19.986C82.301 20.502 81.613 20.76 80.753 20.76H23.477C22.617 20.76 21.886 21.061 21.284 21.663C20.768 22.179 20.51 22.867 20.51 23.727V35.853C20.51 36.713 20.768 37.444 21.284 38.046C21.886 38.562 22.617 38.82 23.477 38.82H71.723C72.583 38.82 73.271 39.121 73.787 39.723C74.389 40.239 74.69 40.927 74.69 41.787V53.913C74.69 54.773 74.389 55.504 73.787 56.106C73.271 56.622 72.583 56.88 71.723 56.88H23.477C22.617 56.88 21.886 57.181 21.284 57.783C20.768 58.299 20.51 58.987 20.51 59.847V90.033C20.51 90.893 20.209 91.624 19.607 92.226C19.091 92.742 18.403 93 17.543 93H5.417C4.557 93 3.826 92.742 3.224 92.226C2.708 91.624 2.45 90.893 2.45 90.033V20.76ZM164.694 20.76H116.448C115.588 20.76 114.857 21.061 114.255 21.663C113.739 22.179 113.481 22.867 113.481 23.727V53.913C113.481 54.773 113.739 55.504 114.255 56.106C114.857 56.622 115.588 56.88 116.448 56.88H164.694C165.554 56.88 166.242 56.622 166.758 56.106C167.36 55.504 167.661 54.773 167.661 53.913V23.727C167.661 22.867 167.36 22.179 166.758 21.663C166.242 21.061 165.554 20.76 164.694 20.76ZM95.4207 90.033V20.76C95.4207 15.772 97.1837 11.515 100.71 7.98899C104.236 4.46299 108.493 2.69999 113.481 2.69999H167.661C172.649 2.69999 176.906 4.46299 180.432 7.98899C183.958 11.515 185.721 15.772 185.721 20.76V90.033C185.721 90.893 185.42 91.624 184.818 92.226C184.302 92.742 183.614 93 182.754 93H170.628C169.768 93 169.037 92.742 168.435 92.226C167.919 91.624 167.661 90.893 167.661 90.033V77.907C167.661 77.047 167.36 76.359 166.758 75.843C166.242 75.241 165.554 74.94 164.694 74.94H116.448C115.588 74.94 114.857 75.241 114.255 75.843C113.739 76.359 113.481 77.047 113.481 77.907V90.033C113.481 90.893 113.18 91.624 112.578 92.226C112.062 92.742 111.374 93 110.514 93H98.3877C97.5277 93 96.7967 92.742 96.1947 92.226C95.6787 91.624 95.4207 90.893 95.4207 90.033ZM267.74 20.76H219.623C218.849 20.76 218.161 21.061 217.559 21.663C216.957 22.265 216.656 22.953 216.656 23.727V71.973C216.656 72.833 216.957 73.564 217.559 74.166C218.161 74.682 218.849 74.94 219.623 74.94H267.74C268.6 74.94 269.331 74.682 269.933 74.166C270.535 73.564 270.836 72.833 270.836 71.973V23.727C270.836 22.953 270.535 22.265 269.933 21.663C269.331 21.061 268.6 20.76 267.74 20.76ZM198.596 74.94V20.76C198.596 15.772 200.359 11.515 203.885 7.98899C207.411 4.46299 211.668 2.69999 216.656 2.69999H270.836C275.824 2.69999 280.038 4.46299 283.478 7.98899C287.004 11.515 288.767 15.772 288.767 20.76V81.003C288.767 81.777 289.068 82.465 289.67 83.067C290.272 83.669 291.003 83.97 291.863 83.97H294.83C295.69 83.97 296.421 84.271 297.023 84.873C297.625 85.389 297.926 86.077 297.926 86.937V99.063C297.926 99.923 297.625 100.611 297.023 101.127C296.421 101.729 295.69 102.03 294.83 102.03H282.833C281.973 102.03 281.242 101.729 280.64 101.127C280.124 100.611 279.866 99.923 279.866 99.063V96.096C279.866 95.236 279.565 94.505 278.963 93.903C278.361 93.301 277.673 93 276.899 93H216.656C211.668 93 207.411 91.237 203.885 87.711C200.359 84.185 198.596 79.928 198.596 74.94Z" fill="black"/>
<path d="M7.739 7.98899L9.15321 9.40321L7.739 7.98899ZM82.817 3.603L81.2985 4.90458L81.3986 5.02139L81.5154 5.12151L82.817 3.603ZM82.817 19.986L81.4028 18.5718L81.4028 18.5718L82.817 19.986ZM21.284 21.663L19.8698 20.2488L19.8698 20.2488L21.284 21.663ZM21.284 38.046L19.7655 39.3476L19.8656 39.4644L19.9824 39.5645L21.284 38.046ZM73.787 39.723L72.2685 41.0246L72.3686 41.1414L72.4854 41.2415L73.787 39.723ZM73.787 56.106L75.2012 57.5202L75.2012 57.5202L73.787 56.106ZM21.284 57.783L22.6982 59.1972L22.6982 59.1972L21.284 57.783ZM19.607 92.226L21.0212 93.6402H21.0212L19.607 92.226ZM3.224 92.226L1.70549 93.5276L1.80561 93.6444L1.92242 93.7445L3.224 92.226ZM4.45 20.76C4.45 16.3023 6.00241 12.554 9.15321 9.40321L6.32479 6.57478C2.42359 10.476 0.45 15.2417 0.45 20.76H4.45ZM9.15321 9.40321C12.304 6.25241 16.0523 4.69999 20.51 4.69999V0.699993C14.9917 0.699993 10.226 2.67358 6.32479 6.57478L9.15321 9.40321ZM20.51 4.69999H80.753V0.699993H20.51V4.69999ZM80.753 4.69999C81.0851 4.69999 81.1974 4.78664 81.2985 4.90458L84.3355 2.30142C83.4046 1.21535 82.1409 0.699993 80.753 0.699993V4.69999ZM81.5154 5.12151C81.6334 5.2226 81.72 5.33492 81.72 5.66699H85.72C85.72 4.27907 85.2047 3.0154 84.1186 2.08449L81.5154 5.12151ZM81.72 5.66699V17.793H85.72V5.66699H81.72ZM81.72 17.793C81.72 18.1286 81.6255 18.3491 81.4028 18.5718L84.2312 21.4002C85.2125 20.4189 85.72 19.1774 85.72 17.793H81.72ZM81.4028 18.5718C81.3283 18.6463 81.1845 18.76 80.753 18.76V22.76C82.0415 22.76 83.2738 22.3577 84.2312 21.4002L81.4028 18.5718ZM80.753 18.76H23.477V22.76H80.753V18.76ZM23.477 18.76C22.0926 18.76 20.8511 19.2675 19.8698 20.2488L22.6982 23.0772C22.9209 22.8545 23.1414 22.76 23.477 22.76V18.76ZM19.8698 20.2488C18.9123 21.2063 18.51 22.4385 18.51 23.727H22.51C22.51 23.2955 22.6237 23.1517 22.6982 23.0772L19.8698 20.2488ZM18.51 23.727V35.853H22.51V23.727H18.51ZM18.51 35.853C18.51 37.1468 18.9116 38.3513 19.7655 39.3476L22.8025 36.7444C22.6244 36.5367 22.51 36.2791 22.51 35.853H18.51ZM19.9824 39.5645C20.9787 40.4184 22.1832 40.82 23.477 40.82V36.82C23.0509 36.82 22.7933 36.7056 22.5856 36.5275L19.9824 39.5645ZM23.477 40.82H71.723V36.82H23.477V40.82ZM71.723 40.82C72.0551 40.82 72.1674 40.9066 72.2685 41.0246L75.3055 38.4214C74.3746 37.3354 73.1109 36.82 71.723 36.82V40.82ZM72.4854 41.2415C72.6034 41.3426 72.69 41.4549 72.69 41.787H76.69C76.69 40.3991 76.1747 39.1354 75.0886 38.2045L72.4854 41.2415ZM72.69 41.787V53.913H76.69V41.787H72.69ZM72.69 53.913C72.69 54.2486 72.5955 54.4691 72.3728 54.6918L75.2012 57.5202C76.1825 56.5389 76.69 55.2974 76.69 53.913H72.69ZM72.3728 54.6918C72.2983 54.7663 72.1545 54.88 71.723 54.88V58.88C73.0115 58.88 74.2437 58.4777 75.2012 57.5202L72.3728 54.6918ZM71.723 54.88H23.477V58.88H71.723V54.88ZM23.477 54.88C22.0926 54.88 20.8511 55.3875 19.8698 56.3688L22.6982 59.1972C22.9209 58.9745 23.1414 58.88 23.477 58.88V54.88ZM19.8698 56.3688C18.9123 57.3263 18.51 58.5585 18.51 59.847H22.51C22.51 59.4155 22.6237 59.2717 22.6982 59.1972L19.8698 56.3688ZM18.51 59.847V90.033H22.51V59.847H18.51ZM18.51 90.033C18.51 90.3686 18.4155 90.5891 18.1928 90.8118L21.0212 93.6402C22.0025 92.6589 22.51 91.4174 22.51 90.033H18.51ZM18.1928 90.8118C18.1183 90.8863 17.9745 91 17.543 91V95C18.8315 95 20.0637 94.5977 21.0212 93.6402L18.1928 90.8118ZM17.543 91H5.417V95H17.543V91ZM5.417 91C4.99085 91 4.73333 90.8856 4.52558 90.7075L1.92242 93.7445C2.91867 94.5984 4.12315 95 5.417 95V91ZM4.74251 90.9244C4.56444 90.7167 4.45 90.4592 4.45 90.033H0.45C0.45 91.3269 0.851556 92.5313 1.70549 93.5276L4.74251 90.9244ZM4.45 90.033V20.76H0.45V90.033H4.45ZM114.255 21.663L112.84 20.2488V20.2488L114.255 21.663ZM114.255 56.106L112.736 57.4076L112.836 57.5244L112.953 57.6245L114.255 56.106ZM166.758 56.106L168.172 57.5202V57.5202L166.758 56.106ZM166.758 21.663L165.239 22.9646L165.339 23.0814L165.456 23.1815L166.758 21.663ZM100.71 7.98899L102.124 9.40321L100.71 7.98899ZM184.818 92.226L183.404 90.8118L183.403 90.8118L184.818 92.226ZM168.435 92.226L166.916 93.5276L167.016 93.6444L167.133 93.7445L168.435 92.226ZM166.758 75.843L165.239 77.1446L165.339 77.2614L165.456 77.3615L166.758 75.843ZM112.578 92.226L113.992 93.6402L112.578 92.226ZM96.1947 92.226L94.6762 93.5276L94.7763 93.6444L94.8931 93.7445L96.1947 92.226ZM164.694 18.76H116.448V22.76H164.694V18.76ZM116.448 18.76C115.063 18.76 113.822 19.2675 112.84 20.2488L115.669 23.0772C115.892 22.8545 116.112 22.76 116.448 22.76V18.76ZM112.84 20.2488C111.883 21.2063 111.481 22.4385 111.481 23.727H115.481C115.481 23.2955 115.594 23.1517 115.669 23.0772L112.84 20.2488ZM111.481 23.727V53.913H115.481V23.727H111.481ZM111.481 53.913C111.481 55.2068 111.882 56.4113 112.736 57.4076L115.773 54.8044C115.595 54.5967 115.481 54.3391 115.481 53.913H111.481ZM112.953 57.6245C113.949 58.4784 115.154 58.88 116.448 58.88V54.88C116.022 54.88 115.764 54.7656 115.556 54.5875L112.953 57.6245ZM116.448 58.88H164.694V54.88H116.448V58.88ZM164.694 58.88C165.982 58.88 167.214 58.4777 168.172 57.5202L165.344 54.6918C165.269 54.7663 165.125 54.88 164.694 54.88V58.88ZM168.172 57.5202C169.153 56.5389 169.661 55.2974 169.661 53.913H165.661C165.661 54.2486 165.566 54.4691 165.343 54.6918L168.172 57.5202ZM169.661 53.913V23.727H165.661V53.913H169.661ZM169.661 23.727C169.661 22.3391 169.145 21.0754 168.059 20.1445L165.456 23.1815C165.574 23.2826 165.661 23.3949 165.661 23.727H169.661ZM168.276 20.3614C167.345 19.2754 166.082 18.76 164.694 18.76V22.76C165.026 22.76 165.138 22.8466 165.239 22.9646L168.276 20.3614ZM97.4207 90.033V20.76H93.4207V90.033H97.4207ZM97.4207 20.76C97.4207 16.3023 98.9731 12.554 102.124 9.40321L99.2955 6.57478C95.3943 10.476 93.4207 15.2417 93.4207 20.76H97.4207ZM102.124 9.40321C105.275 6.25241 109.023 4.69999 113.481 4.69999V0.699993C107.962 0.699993 103.197 2.67358 99.2955 6.57478L102.124 9.40321ZM113.481 4.69999H167.661V0.699993H113.481V4.69999ZM167.661 4.69999C172.118 4.69999 175.867 6.25241 179.018 9.40321L181.846 6.57478C177.945 2.67358 173.179 0.699993 167.661 0.699993V4.69999ZM179.018 9.40321C182.168 12.554 183.721 16.3023 183.721 20.76H187.721C187.721 15.2417 185.747 10.476 181.846 6.57478L179.018 9.40321ZM183.721 20.76V90.033H187.721V20.76H183.721ZM183.721 90.033C183.721 90.3686 183.626 90.5891 183.404 90.8118L186.232 93.6402C187.213 92.6589 187.721 91.4174 187.721 90.033H183.721ZM183.403 90.8118C183.329 90.8863 183.185 91 182.754 91V95C184.042 95 185.274 94.5977 186.232 93.6402L183.403 90.8118ZM182.754 91H170.628V95H182.754V91ZM170.628 91C170.202 91 169.944 90.8856 169.736 90.7075L167.133 93.7445C168.129 94.5984 169.334 95 170.628 95V91ZM169.953 90.9244C169.775 90.7167 169.661 90.4591 169.661 90.033H165.661C165.661 91.3269 166.062 92.5313 166.916 93.5276L169.953 90.9244ZM169.661 90.033V77.907H165.661V90.033H169.661ZM169.661 77.907C169.661 76.5191 169.145 75.2554 168.059 74.3245L165.456 77.3615C165.574 77.4626 165.661 77.5749 165.661 77.907H169.661ZM168.276 74.5414C167.345 73.4554 166.082 72.94 164.694 72.94V76.94C165.026 76.94 165.138 77.0266 165.239 77.1446L168.276 74.5414ZM164.694 72.94H116.448V76.94H164.694V72.94ZM116.448 72.94C115.063 72.94 113.822 73.4475 112.84 74.4288L115.669 77.2572C115.892 77.0345 116.112 76.94 116.448 76.94V72.94ZM112.84 74.4288C111.883 75.3863 111.481 76.6185 111.481 77.907H115.481C115.481 77.4755 115.594 77.3317 115.669 77.2572L112.84 74.4288ZM111.481 77.907V90.033H115.481V77.907H111.481ZM111.481 90.033C111.481 90.3686 111.386 90.5891 111.163 90.8118L113.992 93.6402C114.973 92.6589 115.481 91.4174 115.481 90.033H111.481ZM111.163 90.8118C111.089 90.8863 110.945 91 110.514 91V95C111.802 95 113.034 94.5977 113.992 93.6402L111.163 90.8118ZM110.514 91H98.3877V95H110.514V91ZM98.3877 91C97.9616 91 97.704 90.8856 97.4963 90.7075L94.8931 93.7445C95.8894 94.5984 97.0939 95 98.3877 95V91ZM97.7132 90.9244C97.5351 90.7167 97.4207 90.4592 97.4207 90.033H93.4207C93.4207 91.3269 93.8223 92.5313 94.6762 93.5276L97.7132 90.9244ZM217.559 21.663L216.144 20.2488L216.144 20.2488L217.559 21.663ZM217.559 74.166L216.144 75.5802L216.199 75.6345L216.257 75.6845L217.559 74.166ZM269.933 74.166L271.234 75.6845L271.292 75.6345L271.347 75.5802L269.933 74.166ZM269.933 21.663L271.347 20.2488L271.347 20.2488L269.933 21.663ZM203.885 7.98899L205.299 9.40321L203.885 7.98899ZM283.478 7.98899L282.046 9.38564L282.055 9.39448L282.063 9.40321L283.478 7.98899ZM289.67 83.067L291.084 81.6528L291.084 81.6528L289.67 83.067ZM297.023 84.873L295.608 86.2872L295.663 86.3415L295.721 86.3915L297.023 84.873ZM297.023 101.127L295.721 99.6085L295.663 99.6585L295.608 99.7128L297.023 101.127ZM280.64 101.127L282.054 99.7128L282.054 99.7128L280.64 101.127ZM278.963 93.903L280.377 92.4888L280.377 92.4888L278.963 93.903ZM203.885 87.711L205.299 86.2968L203.885 87.711ZM267.74 18.76H219.623V22.76H267.74V18.76ZM219.623 18.76C218.263 18.76 217.08 19.3129 216.144 20.2488L218.973 23.0772C219.241 22.8091 219.434 22.76 219.623 22.76V18.76ZM216.144 20.2488C215.208 21.1847 214.656 22.367 214.656 23.727H218.656C218.656 23.539 218.705 23.3453 218.973 23.0772L216.144 20.2488ZM214.656 23.727V71.973H218.656V23.727H214.656ZM214.656 71.973C214.656 73.3574 215.163 74.5989 216.144 75.5802L218.973 72.7518C218.75 72.5291 218.656 72.3086 218.656 71.973H214.656ZM216.257 75.6845C217.212 76.5029 218.358 76.94 219.623 76.94V72.94C219.339 72.94 219.109 72.8611 218.86 72.6475L216.257 75.6845ZM219.623 76.94H267.74V72.94H219.623V76.94ZM267.74 76.94C269.033 76.94 270.238 76.5384 271.234 75.6845L268.631 72.6475C268.423 72.8256 268.166 72.94 267.74 72.94V76.94ZM271.347 75.5802C272.328 74.5989 272.836 73.3574 272.836 71.973H268.836C268.836 72.3086 268.741 72.5291 268.518 72.7518L271.347 75.5802ZM272.836 71.973V23.727H268.836V71.973H272.836ZM272.836 23.727C272.836 22.367 272.283 21.1847 271.347 20.2488L268.518 23.0772C268.786 23.3453 268.836 23.539 268.836 23.727H272.836ZM271.347 20.2488C270.365 19.2675 269.124 18.76 267.74 18.76V22.76C268.075 22.76 268.296 22.8545 268.518 23.0772L271.347 20.2488ZM200.596 74.94V20.76H196.596V74.94H200.596ZM200.596 20.76C200.596 16.3023 202.148 12.554 205.299 9.40321L202.47 6.57478C198.569 10.476 196.596 15.2417 196.596 20.76H200.596ZM205.299 9.40321C208.45 6.25241 212.198 4.69999 216.656 4.69999V0.699993C211.137 0.699993 206.371 2.67358 202.47 6.57478L205.299 9.40321ZM216.656 4.69999H270.836V0.699993H216.656V4.69999ZM270.836 4.69999C275.292 4.69999 278.988 6.25088 282.046 9.38564L284.909 6.59235C281.087 2.67511 276.355 0.699993 270.836 0.699993V4.69999ZM282.063 9.40321C285.214 12.554 286.767 16.3023 286.767 20.76H290.767C290.767 15.2417 288.793 10.476 284.892 6.57478L282.063 9.40321ZM286.767 20.76V81.003H290.767V20.76H286.767ZM286.767 81.003C286.767 82.363 287.319 83.5453 288.255 84.4812L291.084 81.6528C290.816 81.3847 290.767 81.191 290.767 81.003H286.767ZM288.255 84.4812C289.237 85.4625 290.478 85.97 291.863 85.97V81.97C291.527 81.97 291.306 81.8755 291.084 81.6528L288.255 84.4812ZM291.863 85.97H294.83V81.97H291.863V85.97ZM294.83 85.97C295.165 85.97 295.386 86.0645 295.608 86.2872L298.437 83.4588C297.455 82.4775 296.214 81.97 294.83 81.97V85.97ZM295.721 86.3915C295.839 86.4926 295.926 86.6049 295.926 86.937H299.926C299.926 85.5491 299.41 84.2854 298.324 83.3545L295.721 86.3915ZM295.926 86.937V99.063H299.926V86.937H295.926ZM295.926 99.063C295.926 99.3951 295.839 99.5074 295.721 99.6085L298.324 102.646C299.41 101.715 299.926 100.451 299.926 99.063H295.926ZM295.608 99.7128C295.386 99.9355 295.165 100.03 294.83 100.03V104.03C296.214 104.03 297.455 103.523 298.437 102.541L295.608 99.7128ZM294.83 100.03H282.833V104.03H294.83V100.03ZM282.833 100.03C282.497 100.03 282.276 99.9355 282.054 99.7128L279.225 102.541C280.207 103.523 281.448 104.03 282.833 104.03V100.03ZM282.054 99.7128C281.979 99.6383 281.866 99.4945 281.866 99.063H277.866C277.866 100.352 278.268 101.584 279.225 102.541L282.054 99.7128ZM281.866 99.063V96.096H277.866V99.063H281.866ZM281.866 96.096C281.866 94.7116 281.358 93.4701 280.377 92.4888L277.548 95.3172C277.771 95.5399 277.866 95.7604 277.866 96.096H281.866ZM280.377 92.4888C279.441 91.5529 278.258 91 276.898 91V95C277.087 95 277.28 95.0491 277.548 95.3172L280.377 92.4888ZM276.898 91H216.656V95H276.898V91ZM216.656 91C212.198 91 208.45 89.4476 205.299 86.2968L202.47 89.1252C206.371 93.0264 211.137 95 216.656 95V91ZM205.299 86.2968C202.148 83.146 200.596 79.3977 200.596 74.94H196.596C196.596 80.4583 198.569 85.224 202.47 89.1252L205.299 86.2968Z" fill="#CF662F" mask="url(#path-1-outside-1_29_193)"/>
</svg>
