<svg width="1437" height="217" viewBox="0 0 1437 217" fill="none" xmlns="http://www.w3.org/2000/svg">
<path d="M418.184 0C462.44 0 496.627 9.21187 520.743 27.6356C544.86 46.0593 556.919 72.8851 556.919 108.113C556.919 143.341 544.86 170.166 520.743 188.59C496.627 207.014 462.44 216.226 418.184 216.226C373.929 216.226 339.742 207.115 315.625 188.894C291.757 170.47 279.823 143.543 279.823 108.113C279.823 72.6826 291.757 45.8569 315.625 27.6356C339.742 9.21187 373.929 0 418.184 0ZM418.184 50.1085C400.532 50.1085 387.106 54.4614 377.907 63.1671C368.707 71.8728 364.108 83.6154 364.108 98.3949V117.831C364.108 132.61 368.707 144.353 377.907 153.059C387.106 161.764 400.532 166.117 418.184 166.117C435.837 166.117 449.263 161.764 458.462 153.059C467.91 144.353 472.634 132.61 472.634 117.831V98.3949C472.634 83.6154 467.91 71.8728 458.462 63.1671C449.263 54.4614 435.837 50.1085 418.184 50.1085Z" fill="#CF662F"/>
<path d="M0 0H273.462V65.9171H116.304V88.9417H273.462V152.659H116.304V216.226H0V0Z" fill="#CF662F"/>
<path d="M827.705 66.3134C827.705 79.5133 823.1 91.456 813.89 102.142C804.679 112.827 791.27 120.684 773.663 125.713L835.832 216.226H735.061L685.489 137.341H643.681V216.226H562.37V0H733.436C753.482 0 770.548 3.03806 784.634 9.11417C798.991 14.9808 809.691 23.0473 816.734 33.3139C824.048 43.3709 827.705 54.3707 827.705 66.3134ZM736.28 69.142C736.28 63.4849 733.842 58.7707 728.966 54.9993C724.09 51.2279 718.131 49.3422 711.087 49.3422H643.681V89.256H711.087C718.131 89.256 724.09 87.3703 728.966 83.5989C733.842 79.618 736.28 74.799 736.28 69.142Z" fill="#CF662F"/>
<path d="M1041.16 216.226V138.284C1041.16 128.646 1041.49 118.798 1042.15 108.741C1043.04 98.4749 1043.92 89.8846 1044.81 82.9704C1045.69 76.0562 1046.24 71.6562 1046.47 69.7705H1045.14L1002.99 216.226H945.577L903.097 70.0848H901.77C901.991 71.9705 902.544 76.3704 903.429 83.2846C904.535 89.9893 905.531 98.4749 906.416 108.741C907.301 118.798 907.743 128.646 907.743 138.284V216.226H840.374V0H943.917L978.432 124.77H979.76L1013.94 0H1113.84V216.226H1041.16Z" fill="#CF662F"/>
<path d="M1307.53 216.226L1297.08 185.74H1210.25L1199.8 216.226H1118.38L1208.81 0H1301.41L1391.84 216.226H1307.53ZM1226.83 137.341H1280.51L1254.57 60.3421H1253.13L1226.83 137.341Z" fill="#CF662F"/>
<path d="M1414.56 11.3569C1418.2 11.3569 1421.07 12.1429 1423.19 13.715C1425.3 15.2666 1426.36 17.4919 1426.36 20.391H1418.84C1418.84 19.166 1418.46 18.1963 1417.7 17.4817C1416.96 16.7671 1415.9 16.4099 1414.53 16.4099C1412.93 16.4099 1411.76 16.8386 1411 17.6961C1410.26 18.5535 1409.89 19.7479 1409.89 21.2791V23.239C1409.89 24.7498 1410.26 25.9441 1411 26.822C1411.76 27.6795 1412.91 28.1082 1414.45 28.1082C1415.98 28.1082 1417.13 27.7714 1417.91 27.0976C1418.7 26.4239 1419.09 25.4746 1419.09 24.2496H1426.36C1426.36 27.1283 1425.33 29.3332 1423.26 30.8644C1421.22 32.3956 1418.32 33.1612 1414.56 33.1612C1410.38 33.1612 1407.2 32.2425 1405.04 30.405C1402.9 28.5676 1401.83 25.8523 1401.83 22.259C1401.83 18.6658 1402.9 15.9505 1405.04 14.1131C1407.2 12.2756 1410.38 11.3569 1414.56 11.3569Z" fill="#CF662F"/>
<path fill-rule="evenodd" clip-rule="evenodd" d="M1414.1 39.066C1423.38 39.066 1430.91 31.541 1430.91 22.2585C1430.91 12.976 1423.38 5.45107 1414.1 5.45107C1404.82 5.45107 1397.29 12.976 1397.29 22.2585C1397.29 31.541 1404.82 39.066 1414.1 39.066ZM1414.1 44.5171C1426.39 44.5171 1436.36 34.5516 1436.36 22.2585C1436.36 9.96549 1426.39 0 1414.1 0C1401.81 0 1391.84 9.96549 1391.84 22.2585C1391.84 34.5516 1401.81 44.5171 1414.1 44.5171Z" fill="#CF662F"/>
</svg>
