<svg width="268" height="41" viewBox="0 0 268 41" fill="none" xmlns="http://www.w3.org/2000/svg">
<path d="M77.7974 0C86.0306 0 92.3905 1.71374 96.8771 5.14122C101.364 8.5687 103.607 13.5593 103.607 20.1129C103.607 26.6666 101.364 31.6571 96.8771 35.0846C92.3905 38.5121 86.0306 40.2258 77.7974 40.2258C69.5642 40.2258 63.2043 38.5309 58.7177 35.1411C54.2773 31.7136 52.0571 26.7042 52.0571 20.1129C52.0571 13.5216 54.2773 8.53104 58.7177 5.14122C63.2043 1.71374 69.5642 0 77.7974 0ZM77.7974 9.32199C74.5134 9.32199 72.0157 10.1318 70.3043 11.7514C68.5929 13.3709 67.7372 15.5555 67.7372 18.305V21.9208C67.7372 24.6703 68.5929 26.8549 70.3043 28.4745C72.0157 30.094 74.5134 30.9038 77.7974 30.9038C81.0814 30.9038 83.5791 30.094 85.2905 28.4745C87.0482 26.8549 87.927 24.6703 87.927 21.9208V18.305C87.927 15.5555 87.0482 13.3709 85.2905 11.7514C83.5791 10.1318 81.0814 9.32199 77.7974 9.32199Z" fill="#CF662F"/>
<path d="M0 0H50.8738V12.263H21.6367V16.5464H50.8738V28.4001H21.6367V40.2258H0V0Z" fill="#CF662F"/>
<path d="M153.983 12.3367C153.983 14.7923 153.126 17.0141 151.413 19.002C149.699 20.9899 147.205 22.4516 143.929 23.3871L155.495 40.2258H136.748L127.526 25.5504H119.748V40.2258H104.621V0H136.446C140.175 0 143.35 0.565188 145.97 1.69556C148.641 2.78696 150.632 4.28763 151.942 6.19758C153.303 8.06855 153.983 10.1149 153.983 12.3367ZM136.975 12.8629C136.975 11.8105 136.521 10.9335 135.614 10.2319C134.707 9.53024 133.598 9.17944 132.288 9.17944H119.748V16.6048H132.288C133.598 16.6048 134.707 16.254 135.614 15.5524C136.521 14.8118 136.975 13.9153 136.975 12.8629Z" fill="#CF662F"/>
<path d="M193.693 40.2258V25.7258C193.693 23.9328 193.754 22.1008 193.878 20.2298C194.042 18.3199 194.207 16.7218 194.372 15.4355C194.536 14.1492 194.639 13.3306 194.68 12.9798H194.433L186.592 40.2258H175.911L168.009 13.0383H167.762C167.803 13.3891 167.906 14.2077 168.07 15.494C168.276 16.7413 168.461 18.3199 168.626 20.2298C168.791 22.1008 168.873 23.9328 168.873 25.7258V40.2258H156.34V0H175.603L182.024 23.2117H182.271L188.63 0H207.214V40.2258H193.693Z" fill="#CF662F"/>
<path d="M243.248 40.2258L241.304 34.5544H225.151L223.207 40.2258H208.059L224.882 0H242.109L258.932 40.2258H243.248ZM228.234 25.5504H238.221L233.395 11.2258H233.127L228.234 25.5504Z" fill="#CF662F"/>
<path d="M263.159 2.11276C263.836 2.11276 264.371 2.25899 264.765 2.55144C265.158 2.8401 265.355 3.2541 265.355 3.79343H263.955C263.955 3.56554 263.885 3.38513 263.743 3.2522C263.606 3.11926 263.409 3.0528 263.153 3.0528C262.857 3.0528 262.638 3.13256 262.496 3.29208C262.359 3.4516 262.291 3.67379 262.291 3.95865V4.32326C262.291 4.60432 262.359 4.82651 262.496 4.98983C262.638 5.14935 262.852 5.22911 263.14 5.22911C263.423 5.22911 263.637 5.16645 263.783 5.04111C263.929 4.91577 264.002 4.73916 264.002 4.51127H265.355C265.355 5.0468 265.163 5.457 264.778 5.74186C264.398 6.02672 263.858 6.16915 263.159 6.16915C262.381 6.16915 261.791 5.99823 261.388 5.6564C260.99 5.31457 260.792 4.80942 260.792 4.14095C260.792 3.47249 260.99 2.96734 261.388 2.62551C261.791 2.28368 262.381 2.11276 263.159 2.11276Z" fill="#CF662F"/>
<path fill-rule="evenodd" clip-rule="evenodd" d="M263.074 7.26769C264.8 7.26769 266.2 5.86777 266.2 4.14089C266.2 2.41401 264.8 1.0141 263.074 1.0141C261.347 1.0141 259.947 2.41401 259.947 4.14089C259.947 5.86777 261.347 7.26769 263.074 7.26769ZM263.074 8.28179C265.36 8.28179 267.214 6.42784 267.214 4.14089C267.214 1.85394 265.36 0 263.074 0C260.787 0 258.933 1.85394 258.933 4.14089C258.933 6.42784 260.787 8.28179 263.074 8.28179Z" fill="#CF662F"/>
</svg>
